<mxfile host="www.draw.io" modified="2020-02-24T02:43:29.370Z" agent="Mozilla/5.0 (Macintosh; Intel Mac OS X 10_15_1) AppleWebKit/537.36 (KHTML, like Gecko) Chrome/80.0.3987.116 Safari/537.36" etag="CjxSFVpDqupVA33Ezgm6" version="12.7.4" type="github">
  <diagram id="p6rKzx0xfmjVV4MkVG9j" name="Page-1">
    <mxGraphModel dx="530" dy="438" grid="1" gridSize="10" guides="1" tooltips="1" connect="1" arrows="1" fold="1" page="1" pageScale="1" pageWidth="827" pageHeight="1169" math="0" shadow="0">
      <root>
        <mxCell id="0" />
        <mxCell id="1" parent="0" />
        <mxCell id="T-RGAyeo8uILWecWjB98-1" value="Extend (n) Devices" style="shape=parallelogram;perimeter=parallelogramPerimeter;whiteSpace=wrap;html=1;fontStyle=1" vertex="1" parent="1">
          <mxGeometry x="210" y="60" width="150" height="70" as="geometry" />
        </mxCell>
        <mxCell id="T-RGAyeo8uILWecWjB98-2" value="&lt;div style=&quot;text-align: center&quot;&gt;&lt;span&gt;Build transaction&lt;/span&gt;&lt;/div&gt;&lt;span style=&quot;font-weight: normal&quot;&gt;+ try to extend n devices in local db&amp;nbsp;&lt;br&gt;+ Verify extension result at local db for every devices&lt;br&gt;+ Check verify result (bool variable) =&amp;gt; need to rollback if meet any issue&lt;/span&gt;" style="rounded=0;whiteSpace=wrap;html=1;fontStyle=1;align=left;" vertex="1" parent="1">
          <mxGeometry x="124" y="160" width="290" height="90" as="geometry" />
        </mxCell>
        <mxCell id="T-RGAyeo8uILWecWjB98-5" value="Rollback ?" style="rhombus;whiteSpace=wrap;html=1;fontStyle=1" vertex="1" parent="1">
          <mxGeometry x="216.5" y="290" width="105" height="80" as="geometry" />
        </mxCell>
        <mxCell id="T-RGAyeo8uILWecWjB98-6" value="" style="endArrow=classic;html=1;entryX=0.5;entryY=0;entryDx=0;entryDy=0;" edge="1" parent="1" target="T-RGAyeo8uILWecWjB98-2">
          <mxGeometry width="50" height="50" relative="1" as="geometry">
            <mxPoint x="269" y="130" as="sourcePoint" />
            <mxPoint x="320" y="130" as="targetPoint" />
          </mxGeometry>
        </mxCell>
        <mxCell id="T-RGAyeo8uILWecWjB98-7" value="" style="endArrow=classic;html=1;exitX=0.5;exitY=1;exitDx=0;exitDy=0;entryX=0.5;entryY=0;entryDx=0;entryDy=0;" edge="1" parent="1">
          <mxGeometry width="50" height="50" relative="1" as="geometry">
            <mxPoint x="268.5" y="250" as="sourcePoint" />
            <mxPoint x="268.5" y="290" as="targetPoint" />
          </mxGeometry>
        </mxCell>
        <mxCell id="T-RGAyeo8uILWecWjB98-8" value="- NOT update TopPay db" style="rounded=1;whiteSpace=wrap;html=1;" vertex="1" parent="1">
          <mxGeometry x="70" y="400" width="160" height="60" as="geometry" />
        </mxCell>
        <mxCell id="T-RGAyeo8uILWecWjB98-9" value="-update /create transaction into TopPay db" style="rounded=1;whiteSpace=wrap;html=1;" vertex="1" parent="1">
          <mxGeometry x="320" y="400" width="154" height="60" as="geometry" />
        </mxCell>
        <mxCell id="T-RGAyeo8uILWecWjB98-10" value="" style="curved=1;endArrow=classic;html=1;exitX=0;exitY=0.5;exitDx=0;exitDy=0;" edge="1" parent="1" source="T-RGAyeo8uILWecWjB98-5">
          <mxGeometry width="50" height="50" relative="1" as="geometry">
            <mxPoint x="250" y="460" as="sourcePoint" />
            <mxPoint x="130" y="400" as="targetPoint" />
            <Array as="points">
              <mxPoint x="130" y="340" />
            </Array>
          </mxGeometry>
        </mxCell>
        <mxCell id="T-RGAyeo8uILWecWjB98-11" value="" style="curved=1;endArrow=classic;html=1;exitX=1;exitY=0.5;exitDx=0;exitDy=0;entryX=0.5;entryY=0;entryDx=0;entryDy=0;" edge="1" parent="1" source="T-RGAyeo8uILWecWjB98-5" target="T-RGAyeo8uILWecWjB98-9">
          <mxGeometry width="50" height="50" relative="1" as="geometry">
            <mxPoint x="226.5" y="340" as="sourcePoint" />
            <mxPoint x="420" y="390" as="targetPoint" />
            <Array as="points">
              <mxPoint x="400" y="330" />
            </Array>
          </mxGeometry>
        </mxCell>
        <mxCell id="T-RGAyeo8uILWecWjB98-12" value="YES&lt;br&gt;" style="text;html=1;align=center;verticalAlign=middle;resizable=0;points=[];autosize=1;" vertex="1" parent="1">
          <mxGeometry x="130" y="330" width="40" height="20" as="geometry" />
        </mxCell>
        <mxCell id="T-RGAyeo8uILWecWjB98-13" value="NO&lt;br&gt;" style="text;html=1;align=center;verticalAlign=middle;resizable=0;points=[];autosize=1;" vertex="1" parent="1">
          <mxGeometry x="399" y="330" width="30" height="20" as="geometry" />
        </mxCell>
        <mxCell id="T-RGAyeo8uILWecWjB98-16" value="Exit" style="shape=parallelogram;perimeter=parallelogramPerimeter;whiteSpace=wrap;html=1;" vertex="1" parent="1">
          <mxGeometry x="80" y="520" width="120" height="60" as="geometry" />
        </mxCell>
        <mxCell id="T-RGAyeo8uILWecWjB98-17" value="Exit" style="shape=parallelogram;perimeter=parallelogramPerimeter;whiteSpace=wrap;html=1;" vertex="1" parent="1">
          <mxGeometry x="337" y="520" width="120" height="60" as="geometry" />
        </mxCell>
        <mxCell id="T-RGAyeo8uILWecWjB98-19" value="" style="edgeStyle=orthogonalEdgeStyle;rounded=0;orthogonalLoop=1;jettySize=auto;html=1;entryX=0.5;entryY=0;entryDx=0;entryDy=0;exitX=0.438;exitY=1.033;exitDx=0;exitDy=0;exitPerimeter=0;" edge="1" parent="1" source="T-RGAyeo8uILWecWjB98-8" target="T-RGAyeo8uILWecWjB98-16">
          <mxGeometry relative="1" as="geometry">
            <mxPoint x="220" y="490" as="sourcePoint" />
            <mxPoint x="279" y="260" as="targetPoint" />
          </mxGeometry>
        </mxCell>
        <mxCell id="T-RGAyeo8uILWecWjB98-20" value="" style="edgeStyle=orthogonalEdgeStyle;rounded=0;orthogonalLoop=1;jettySize=auto;html=1;entryX=0.5;entryY=0;entryDx=0;entryDy=0;exitX=0.5;exitY=1;exitDx=0;exitDy=0;" edge="1" parent="1" source="T-RGAyeo8uILWecWjB98-9" target="T-RGAyeo8uILWecWjB98-17">
          <mxGeometry relative="1" as="geometry">
            <mxPoint x="150.08000000000004" y="471.98" as="sourcePoint" />
            <mxPoint x="150" y="530" as="targetPoint" />
          </mxGeometry>
        </mxCell>
      </root>
    </mxGraphModel>
  </diagram>
</mxfile>
